<svg id="Layer_1" data-name="Layer 1" xmlns="http://www.w3.org/2000/svg" viewBox="0 0 288 201.6"><defs><style>.cls-1{fill:#fff;}.cls-2,.cls-6{fill:#366043;}.cls-2{stroke:#366043;}.cls-2,.cls-3{stroke-linecap:round;stroke-linejoin:round;stroke-width:0.83px;}.cls-3{fill:#dba428;stroke:#dba428;}.cls-4{fill:#593e16;}.cls-5{fill:#f15d24;}</style></defs><title>logo</title><rect class="cls-1" width="288" height="201.6"/><path class="cls-2" d="M284.93,154.45a5.36,5.36,0,1,1-2.42-7.19A5.36,5.36,0,0,1,284.93,154.45ZM269.19,86.39a5.36,5.36,0,1,0,5.37,5.36A5.36,5.36,0,0,0,269.19,86.39ZM231.64,38.2a5.36,5.36,0,1,0,7.15,2.52A5.36,5.36,0,0,0,231.64,38.2ZM172.63,10a5.36,5.36,0,1,0,7.51-1.05A5.36,5.36,0,0,0,172.63,10Zm-65.95,2.28a5.36,5.36,0,1,0,6.16-4.42A5.36,5.36,0,0,0,106.68,12.24ZM49.45,44.76A5.36,5.36,0,1,0,52.86,38,5.37,5.37,0,0,0,49.45,44.76ZM15.17,96.29a5.36,5.36,0,1,0,.11-7.58A5.38,5.38,0,0,0,15.17,96.29ZM7.25,157.41A5.36,5.36,0,1,0,4,150.57,5.37,5.37,0,0,0,7.25,157.41Z" transform="translate(0 0.19)"/><path class="cls-3" d="M133.61,25.34l10.6-10.47h0L154.94,25.2Zm-35.26,8.5L84.06,29.63h0L79.5,43.82ZM28.25,113.3,16.18,122h0l8.43,12.28Zm25.51-47L39.12,69.09h0l2.42,14.7ZM209.11,43.82l-4.55-14.18h0l-14.29,4.21ZM264,134.31,272.43,122h0l-12.07-8.73ZM247.08,83.79l2.42-14.7h0l-14.63-2.78Zm-220.56,83L19.59,180h0l13,7.25ZM256,188.1l13-7.24h0l-6.92-13.18Z" transform="translate(0 0.19)"/><path class="cls-4" d="M26.22,67.05l.52,1.82.46,1.82.91,3.65c.54,2.44,1.07,4.89,1.52,7.34s.87,4.91,1.31,7.37L32,96.45a2.11,2.11,0,0,1,0,.25h0v0a1.89,1.89,0,0,1-.81,1.5c-2,1.35-4,2.73-6,4s-4.06,2.64-6.14,3.89-4.16,2.5-6.26,3.71-4.25,2.38-6.46,3.43h0a.1.1,0,0,1-.13,0,.1.1,0,0,1,0-.13L30.05,96.53,30,96.7h0v0L26,67.08A.09.09,0,0,1,26.1,67a.09.09,0,0,1,.11.07Z" transform="translate(0 0.19)"/><path class="cls-4" d="M33.65,56.5c2.33-.77,4.7-1.32,7-2s4.72-1.15,7.09-1.65,4.75-1,7.13-1.44,4.77-.82,7.15-1.24l-1.3.86h0l-.2.42L63,44.37c.86-2.34,1.65-4.71,2.58-7s1.82-4.65,2.78-7L69.85,27l.76-1.71.83-1.7h0a.11.11,0,0,1,.14-.05.09.09,0,0,1,0,.12L62.56,52.1l0,0h0a.21.21,0,0,1-.14.1l-28.7,4.46a.11.11,0,0,1-.12-.09.11.11,0,0,1,.07-.12Z" transform="translate(0 0.19)"/><path class="cls-4" d="M87,15.45c2.42.39,4.77,1,7.16,1.48s4.72,1.16,7,1.81,4.66,1.34,7,2,4.61,1.47,6.92,2.2l-1.45.11h0l-.47.34,5.38-5.2c1.84-1.68,3.63-3.41,5.52-5s3.77-3.29,5.69-4.89l2.94-2.34,1.47-1.17,1.52-1.12h0a.12.12,0,0,1,.15,0,.11.11,0,0,1,0,.14l-21.2,21.09-.06,0h0a.18.18,0,0,1-.16,0L86.88,15.65a.1.1,0,0,1-.06-.13.1.1,0,0,1,.11-.07Z" transform="translate(0 0.19)"/><path class="cls-4" d="M262.55,66.38v1.89l-.05,1.88-.1,3.76c-.13,2.5-.29,5-.5,7.48s-.49,5-.73,7.45l-.93,7.42,0-.26h0l-.81-1.55c2,1.41,4,2.79,5.91,4.22s3.9,2.87,5.8,4.38,3.8,3,5.67,4.56,3.72,3.14,5.49,4.84h0a.11.11,0,0,1,0,.15.09.09,0,0,1-.13,0L258.27,96.18a.21.21,0,0,1-.09-.17h0v0l4.16-29.61a.1.1,0,0,1,.12-.09.09.09,0,0,1,.08.1Z" transform="translate(0 0.19)"/><path class="cls-4" d="M217.11,22.84l.84,1.7.76,1.71,1.54,3.44c1,2.3,1.91,4.62,2.79,7s1.71,4.69,2.57,7L228,50.76l-.22-.46h0l-1.28-.82c2.39.42,4.78.79,7.16,1.24s4.76.9,7.12,1.44,4.74,1.06,7.09,1.65,4.71,1.21,7,2h0a.1.1,0,0,1,.06.13.09.09,0,0,1-.11.07l-28.7-4.46a.23.23,0,0,1-.14-.09h0a.08.08,0,0,1,0-.05l-9.09-28.49a.11.11,0,0,1,.07-.13.1.1,0,0,1,.13,0Z" transform="translate(0 0.19)"/><path class="cls-4" d="M152.87,2.94l1.53,1.12,1.47,1.17,2.94,2.34c1.92,1.6,3.83,3.22,5.69,4.88s3.68,3.37,5.52,5.05l5.38,5.2-.34-.26h0l-1.58-.18c2.31-.73,4.6-1.5,6.92-2.2s4.64-1.4,7-2,4.69-1.24,7.06-1.81,4.74-1.09,7.16-1.48h0a.1.1,0,0,1,.12.09.09.09,0,0,1-.07.11l-27.52,9.28a.22.22,0,0,1-.18,0h0l0,0L152.73,3.09a.11.11,0,0,1,0-.15.1.1,0,0,1,.13,0Z" transform="translate(0 0.19)"/><path class="cls-4" d="M6.74,176.49c.82-2.31,1.84-4.51,2.76-6.77s2-4.43,3.05-6.61,2.16-4.33,3.25-6.5,2.28-4.27,3.42-6.41l0,1.74h0l.14.24-4.13-6.24c-1.32-2.12-2.7-4.19-4-6.35s-2.55-4.29-3.78-6.47l-1.76-3.32-.88-1.66L4,126.43H4a.11.11,0,0,1,0-.14.1.1,0,0,1,.13,0L21,151v0h0a.21.21,0,0,1,0,.19L6.92,176.6a.11.11,0,0,1-.14,0,.11.11,0,0,1,0-.13Z" transform="translate(0 0.19)"/><path class="cls-4" d="M285,126.63l-.82,1.7-.89,1.66-1.76,3.32c-1.23,2.17-2.48,4.34-3.78,6.47s-2.65,4.23-4,6.35l-4.15,6.22.19-.34h0l-.1-1.61c1.14,2.13,2.31,4.25,3.42,6.41s2.21,4.3,3.24,6.5,2.07,4.39,3,6.61,1.93,4.46,2.76,6.77v0a.1.1,0,0,1-.06.13.11.11,0,0,1-.13,0l-14.1-25.4a.19.19,0,0,1,0-.18h0l0,0,16.91-24.67a.1.1,0,0,1,.14,0,.11.11,0,0,1,0,.14Z" transform="translate(0 0.19)"/><path class="cls-5" d="M123.39,26.36l1.14-1.44,1.18-1.39,2.38-2.79c1.62-1.81,3.25-3.61,4.94-5.36s3.39-3.46,5.09-5.2l5.23-5a1.87,1.87,0,0,1,1.29-.51h.05a1.85,1.85,0,0,1,1.29.56l5,5.24c1.64,1.79,3.31,3.54,4.9,5.38s3.19,3.66,4.75,5.53,3.07,3.78,4.49,5.78v0a.09.09,0,0,1,0,.14.11.11,0,0,1-.14,0L144.49,6.65l.15.06h0l.14,0L123.53,26.52a.11.11,0,0,1-.15-.15Z" transform="translate(0 0.19)"/><path class="cls-5" d="M108.23,31l-1.81-.3-1.79-.36L101,29.62c-2.37-.54-4.73-1.11-7.08-1.73s-4.67-1.3-7-1.94l-7-2.13,1.65-.25h0l.7-.93-2.49,6.84C79,31.73,78.15,34,77.19,36.25s-1.88,4.47-2.87,6.69-2,4.43-3.21,6.58v0a.1.1,0,0,1-.14,0,.09.09,0,0,1,0-.12L80.37,22a.31.31,0,0,1,.08-.11h0a.22.22,0,0,1,.19,0l27.66,9a.12.12,0,0,1,.07.13.11.11,0,0,1-.12.07Z" transform="translate(0 0.19)"/><path class="cls-5" d="M32.06,103.75,30.71,105l-1.38,1.19-2.77,2.39c-1.88,1.55-3.77,3.07-5.7,4.54S17,116,15,117.48l-5.94,4.2.61-.7h0l-.1-1.88,3.89,6.15c1.24,2.08,2.53,4.13,3.72,6.25s2.38,4.23,3.53,6.37S23,142.19,24,144.44h0a.11.11,0,0,1,0,.14.1.1,0,0,1-.13,0l-16-24.31a.22.22,0,0,1,0-.21h0a.18.18,0,0,1,.07-.08l24-16.38a.11.11,0,0,1,.15,0,.11.11,0,0,1,0,.14Z" transform="translate(0 0.19)"/><path class="cls-5" d="M25.69,156.58,25,158.3,24.33,160l-1.41,3.38c-1,2.21-2,4.42-3.09,6.6s-2.19,4.33-3.28,6.5l-3.46,6.39.14-1.53h0l-.83-1,6.22,3.77c2,1.32,4.11,2.58,6.11,3.95s4,2.73,6,4.14,3.94,2.86,5.82,4.44h0a.11.11,0,0,1,0,.15.12.12,0,0,1-.13,0L11.34,182.12a.31.31,0,0,1-.09-.11h0a.25.25,0,0,1,0-.17l14.25-25.35a.1.1,0,0,1,.14,0,.09.09,0,0,1,.05.12Z" transform="translate(0 0.19)"/><path class="cls-5" d="M61.27,59.29l-1.75.56-1.77.49-3.52,1c-2.36.6-4.72,1.18-7.09,1.69S42.39,64,40,64.49l-7.16,1.27.78-.32h0l.78-1.81.91,7.22c.24,2.41.53,4.82.71,7.24s.36,4.84.49,7.27.21,4.87.15,7.32v0a.11.11,0,0,1-.11.1.11.11,0,0,1-.1-.09L32.34,63.93a.2.2,0,0,1,.09-.2h0a.11.11,0,0,1,.08,0l28.72-4.62a.1.1,0,0,1,.12.09.09.09,0,0,1-.07.11Z" transform="translate(0 0.19)"/><path class="cls-5" d="M217.51,49.52l-.86-1.62-.78-1.65-1.58-3.31c-1-2.22-2-4.44-2.88-6.69s-1.77-4.51-2.66-6.77l-2.48-6.84,1,1.08h0l1.4.1-7,2.12c-2.33.65-4.65,1.36-7,1.94s-4.71,1.19-7.08,1.73-4.76,1-7.19,1.4h0a.11.11,0,0,1-.12-.08.12.12,0,0,1,.08-.12l27.66-9a.25.25,0,0,1,.15,0h0a.2.2,0,0,1,.1.12l9.46,27.5a.1.1,0,0,1-.06.13.11.11,0,0,1-.13-.05Z" transform="translate(0 0.19)"/><path class="cls-5" d="M264.63,144.44l.77-1.67.82-1.63,1.65-3.27c1.15-2.14,2.31-4.28,3.53-6.37s2.48-4.17,3.72-6.26L279,119.1l-.12,1.83h0l.63.75-5.94-4.2c-1.94-1.45-3.92-2.85-5.82-4.36s-3.82-3-5.7-4.54-3.74-3.13-5.51-4.83h0a.11.11,0,0,1,0-.15.11.11,0,0,1,.13,0l24,16.38a.22.22,0,0,1,.07.09h0a.2.2,0,0,1,0,.2l-16,24.31a.1.1,0,0,1-.14,0,.11.11,0,0,1,0-.13Z" transform="translate(0 0.19)"/><path class="cls-5" d="M252.07,197.45l1.43-1.16L255,195.2,257.9,193c2-1.41,4-2.8,6-4.14s4.08-2.62,6.12-3.94l6.21-3.77-.92,1.63h0l.23.92-3.45-6.4c-1.09-2.17-2.24-4.3-3.27-6.5s-2.09-4.39-3.08-6.61-1.95-4.46-2.78-6.78h0a.09.09,0,0,1,.07-.13.1.1,0,0,1,.12,0l14.23,25.37a.19.19,0,0,1,0,.1h0a.21.21,0,0,1-.11.18l-25.11,14.66a.1.1,0,0,1-.14,0,.09.09,0,0,1,0-.13Z" transform="translate(0 0.19)"/><path class="cls-5" d="M252,92.69l0-1.83L252,89l.11-3.66c.13-2.43.27-4.85.49-7.27s.47-4.83.71-7.24l.91-7.22,0,.26h0l1.58,1.86-7.16-1.28c-2.37-.48-4.76-.91-7.13-1.47s-4.73-1.09-7.09-1.69-4.7-1.24-7-2h0a.1.1,0,0,1-.06-.13.09.09,0,0,1,.11-.07L256.1,63.7a.2.2,0,0,1,.18.2h0v0l-4.12,28.79a.09.09,0,0,1-.11.09.1.1,0,0,1-.09-.1Z" transform="translate(0 0.19)"/><path id="project" class="cls-4" d="M67.52,162.58v-25h6.89c5.89,0,8.76,2.77,8.76,7.48s-2.87,7.49-8.76,7.49H72.3v10Zm4.78-14h2.56c2.36,0,3.53-1.18,3.53-3.54s-1.17-3.53-3.53-3.53H72.3Zm31.38,14L99.53,152.4H97.24v10.18H92.46v-25h6.93c5.75,0,8.48,2.77,8.48,7.48,0,3.12-1.11,5.37-3.77,6.38l4.71,11.15Zm-6.44-14.13H99.7c2.11,0,3.39-1,3.39-3.47s-1.28-3.46-3.39-3.46H97.24Zm20-2.84c0-6.17,3.26-8.38,7.9-8.38s7.9,2.21,7.9,8.38v8.93c0,6.17-3.26,8.39-7.9,8.39s-7.9-2.22-7.9-8.39Zm4.78,9.56c0,2.77,1.22,3.53,3.12,3.53s3.12-.76,3.12-3.53V145c0-2.77-1.21-3.53-3.12-3.53S122,142.21,122,145Zm27.82-17.6v19.71c0,3.36-2.25,5.65-6.41,5.65a21.14,21.14,0,0,1-2.35-.11V158.6c.48,0,.86.1,1.28.1,2.18,0,2.7-.59,2.7-2.39V137.57Zm10.53,25v-25h13.1v4.23h-8.32v5.75h6.34v4.22h-6.34v6.58h8.66v4.23ZM188,155.17c0,2.77,1.21,3.53,3.11,3.53s3.12-.76,3.12-3.53v-1.66h4.78v1c0,6.17-3.26,8.39-7.9,8.39s-7.89-2.22-7.89-8.39v-8.93c0-6.17,3.25-8.38,7.89-8.38s7.9,2.21,7.9,8.38v.07h-4.78V145c0-2.77-1.21-3.53-3.12-3.53S188,142.21,188,145Zm35.33-17.6v4.23h-5.58v20.78H213V141.8h-5.57v-4.23Z" transform="translate(0 0.19)"/><path id="o" class="cls-6" d="M104.4,86.26c0-13.4,7.08-18.22,17.17-18.22s17.17,4.82,17.17,18.22v19.43c0,13.4-7.08,18.22-17.17,18.22s-17.17-4.82-17.17-18.22ZM114.79,107c0,6,2.64,7.68,6.78,7.68s6.78-1.65,6.78-7.68V84.9c0-6-2.64-7.68-6.78-7.68s-6.78,1.66-6.78,7.68Z" transform="translate(0 0.19)"/><path id="ooutline" class="cls-1" d="M121.8,72.36a11.86,11.86,0,0,0-3.75.54,8.38,8.38,0,0,0-3.23,1.9,13,13,0,0,0-3.38,6.56c-1.1,4.92-.84,10-1,15.13-.09,2.55-.17,5.09-.06,7.63a29.1,29.1,0,0,0,1.16,7.48,11.74,11.74,0,0,0,4.09,6.15,10.21,10.21,0,0,0,7.09,1.62,11.07,11.07,0,0,0,6.67-2.69,12.81,12.81,0,0,0,3.49-6.29,35.18,35.18,0,0,0,1-7.42c.1-2.52.1-5.06.1-7.62s.07-5.12,0-7.64a31.81,31.81,0,0,0-.87-7.44c-.14-.6-.41-1.16-.6-1.75s-.56-1.1-.88-1.63a9.4,9.4,0,0,0-2.62-2.6A14,14,0,0,0,121.8,72.36Zm0-.15a16,16,0,0,1,7.45,1.73,9.83,9.83,0,0,1,3,2.55c.38.53.73,1.1,1.06,1.67a19.42,19.42,0,0,1,.79,1.81,26.71,26.71,0,0,1,1.38,7.68c.16,2.59.1,5.15.13,7.7,0,5.09.08,10.32-1.34,15.43a13.62,13.62,0,0,1-4.06,6.8,11.74,11.74,0,0,1-7.41,2.61,11.4,11.4,0,0,1-7.46-2,13,13,0,0,1-4.24-6.42c-1.62-4.93-1.82-10.17-1.88-15.27s-.23-10.34,1.32-15.37a13.78,13.78,0,0,1,4-6.6A10.86,10.86,0,0,1,121.8,72.21Z" transform="translate(0 0.19)"/><path id="tagline" class="cls-6" d="M59.5,177a1.79,1.79,0,0,0,.3-.7c0-.3-.44-.26-.44-.5a1.51,1.51,0,0,1,.1-.38h2.08l-.1.29c-.16.53-.46.17-.87.86l-4.22,7.17h-1l-.27-4.52-2.68,4.52h-1l-.37-7.23c0-.63-.58-.35-.58-.71a2.72,2.72,0,0,1,.11-.38h3.13l-.08.29c-.15.52-.79.1-.74.94l.24,4.48L55.1,178,55,176.52c0-.6-.58-.38-.58-.71,0-.07.07-.31.08-.38h3.24l-.1.39c-.16.52-.78-.13-.73.92l.21,4.31Zm3.25-.53a.51.51,0,0,0,0-.2c0-.45-.45-.23-.45-.47a1,1,0,0,1,.1-.38l2.49-.08L64,178.7A3.69,3.69,0,0,1,66,178c.66,0,1.49.31,1.49,1.1a2.88,2.88,0,0,1-.14.71l-.7,2.65a1.75,1.75,0,0,0-.1.44.18.18,0,0,0,.19.2c.2,0,.42-.21.58-.34l0,.08a.75.75,0,0,1,.13.27c0,.26-.66.78-1.44.78-.56,0-1.31-.35-1.31-1a3.1,3.1,0,0,1,.13-.74l.72-2.65a1.89,1.89,0,0,0,.07-.39c0-.24-.19-.33-.41-.33a2.61,2.61,0,0,0-1.39.68l-1.13,4.23H60.81ZM74,182.72a3.41,3.41,0,0,1-2.63,1.17,2.15,2.15,0,0,1-2.4-2.15A3.89,3.89,0,0,1,72.82,178c.74,0,1.67.33,1.67,1.27,0,1.13-1.31,2.11-3.67,2.06l0,.46c0,.77.29,1.44,1.16,1.44a2.32,2.32,0,0,0,1.66-.87ZM73.24,179c0-.26-.14-.51-.42-.51-.91,0-1.78,1.51-1.9,2.3C72.64,180.76,73.24,179.68,73.24,179Zm4.26,4.69H75.71l.49-1.82a12.64,12.64,0,0,0,.46-2.33c0-.68-.55-.15-.62-.61l-.06-.32a6.2,6.2,0,0,0,2.16-.61c.2,0,.21.72.21.8a6,6,0,0,1-.18,1.41h0c.41-.8,1.06-2.21,2.14-2.21a.89.89,0,0,1,.88.81,1,1,0,0,1-1,1c-.53,0-.7-.42-.87-.42s-1.07,1.78-1.24,2.27Zm9.08-1A3.38,3.38,0,0,1,84,183.89a2.15,2.15,0,0,1-2.39-2.15A3.88,3.88,0,0,1,85.44,178c.75,0,1.67.33,1.67,1.27,0,1.13-1.3,2.11-3.66,2.06l0,.46c0,.77.3,1.44,1.17,1.44a2.28,2.28,0,0,0,1.65-.87ZM85.87,179a.45.45,0,0,0-.43-.51c-.9,0-1.77,1.51-1.9,2.3C85.27,180.76,85.87,179.68,85.87,179Zm7.77,2.33-.47.75a1.24,1.24,0,0,0-.21.58c0,.48.64.3.64.64a3.69,3.69,0,0,1-.1.39H90.93l.09-.35c.08-.32.46-.14.77-.61l4-6.19,0-.24c0-.11-.07-.36-.07-.49s.25-.24.41-.29l.9-.24a2.46,2.46,0,0,1,.29-.07c.21,0,.24.35.26.49l1.09,7c.1.6.55.33.55.63a4,4,0,0,1-.09.4H95.85l.09-.35c.12-.42.72-.07.72-.72a1.84,1.84,0,0,0,0-.41l-.12-.88Zm2.29-3.71-1.81,2.93h2.26Zm6.32,6.07h-1.88l1.31-4.83h-.51l.09-.35c.15-.52.72-.06.94-1.16a2.52,2.52,0,0,1,2.59-2.12c.68,0,1.56.32,1.56,1.13a.94.94,0,0,1-.95.93.71.71,0,0,1-.76-.71c0-.29.23-.57.23-.7a.17.17,0,0,0-.15-.17c-.37,0-.62,1.14-.69,1.4l-.31,1.09H105l-.18.66h-1.28Zm5,0h-1.8l.49-1.82a11.86,11.86,0,0,0,.46-2.33c0-.68-.55-.15-.62-.61l-.06-.32a6.11,6.11,0,0,0,2.16-.61c.2,0,.21.72.21.8a6.55,6.55,0,0,1-.17,1.41h0c.42-.8,1.06-2.21,2.14-2.21a.88.88,0,0,1,.88.81,1,1,0,0,1-1,1c-.53,0-.69-.42-.87-.42s-1.07,1.78-1.23,2.27Zm7.08-.7a.18.18,0,0,1,.06.14c0,.28-.87.76-1.55.76s-1.32-.3-1.32-1.08a3.19,3.19,0,0,1,.14-.76l.72-2.7a.72.72,0,0,0,0-.19c0-.42-.45-.22-.45-.47a2.57,2.57,0,0,1,.08-.38h.37a7.41,7.41,0,0,0,1.88-.25.73.73,0,0,1,.21-.06c.08,0,.09.05.09.12a2.66,2.66,0,0,1-.08.33l-1.12,4a1.69,1.69,0,0,0-.07.38.25.25,0,0,0,.25.24,1.49,1.49,0,0,0,.63-.28Zm.73-6.67a1,1,0,0,1-1,1.06,1,1,0,0,1-1-1.07,1,1,0,1,1,2,0Zm5.74,6.41a3.46,3.46,0,0,1-2.53,1.16,2.17,2.17,0,0,1-2.4-2.16,3.91,3.91,0,0,1,4-3.73c.66,0,1.53.31,1.53,1.11a.9.9,0,0,1-.91.89.79.79,0,0,1-.82-.76c0-.31.2-.45.2-.58s-.07-.12-.15-.12c-.57,0-1.94,1.19-1.94,3.14,0,.73.28,1.49,1.12,1.49a2.33,2.33,0,0,0,1.57-.83Zm7.94-4.56a1.72,1.72,0,0,1,.21-.07c.11,0,0,.19,0,.22l-1.14,4.24a1.07,1.07,0,0,0-.06.3.23.23,0,0,0,.23.25,1.27,1.27,0,0,0,.66-.29,1.2,1.2,0,0,1,.17.34c0,.24-.88.73-1.66.73a1.14,1.14,0,0,1-1.16-.74,2.65,2.65,0,0,1-1.81.74,1.86,1.86,0,0,1-1.85-2,4.08,4.08,0,0,1,3.7-3.87,2.42,2.42,0,0,1,1.44.53l.09.07Zm-1.84.87a.54.54,0,0,0-.54-.44c-1.21,0-2.07,2.38-2.07,3.54,0,.4.15,1,.63,1a1.29,1.29,0,0,0,.89-.5,1.83,1.83,0,0,0,.35-.79Zm4.77-.65c.28-.13,1.25-.7,1.25-1s-1-.18-1-1.16a1,1,0,0,1,1-1,1.12,1.12,0,0,1,1,1.16,2.84,2.84,0,0,1-2,2.45Zm5.43-.39c.7,0,2.19.17,2.19,1.13a.79.79,0,0,1-.81.75c-.31,0-.79-.22-.79-.58,0-.12.07-.25.07-.38,0-.29-.43-.38-.67-.38s-.81.2-.81.6c0,.94,2.5,1,2.5,2.72,0,1.14-1,2-2.78,2-.86,0-2.42-.25-2.42-1.39a.85.85,0,0,1,.85-.85.82.82,0,0,1,.86.76c0,.31-.2.54-.2.63,0,.25.55.31.72.31.44,0,1.06-.22,1.06-.75,0-1-2.44-1.22-2.44-2.65S136,178,137.13,178Zm14.56,0h-.27c-.84,0-.13-2.16-1.85-2.16-2.12,0-3.11,3.61-3.11,5.22,0,1.09.54,2.06,1.73,2.06a3.11,3.11,0,0,0,2.37-1.32l.48.48a4.1,4.1,0,0,1-3.35,1.62,3,3,0,0,1-3.22-3.25,5.25,5.25,0,0,1,4.95-5.41,5.17,5.17,0,0,1,2,.57.46.46,0,0,0,.33-.23h.62Zm2.38-1.51a.75.75,0,0,0,0-.2c0-.45-.44-.23-.44-.47a1.24,1.24,0,0,1,.09-.38l2.49-.08-.89,3.35a3.69,3.69,0,0,1,1.93-.7c.65,0,1.49.31,1.49,1.1a2.88,2.88,0,0,1-.14.71l-.71,2.65a2.29,2.29,0,0,0-.09.44.18.18,0,0,0,.19.2c.2,0,.42-.21.57-.34l0,.08a1,1,0,0,1,.13.27c0,.26-.66.78-1.45.78-.55,0-1.3-.35-1.3-1a3.1,3.1,0,0,1,.13-.74l.72-2.65a1.89,1.89,0,0,0,.07-.39c0-.24-.19-.33-.42-.33a2.61,2.61,0,0,0-1.38.68L154,183.69h-1.88Zm9.15,6.51a.22.22,0,0,1,.06.14c0,.28-.87.76-1.55.76s-1.32-.3-1.32-1.08a3.19,3.19,0,0,1,.14-.76l.72-2.7a.68.68,0,0,0,0-.19c0-.42-.44-.22-.44-.47a2.57,2.57,0,0,1,.08-.38h.36a7.29,7.29,0,0,0,1.88-.25.9.9,0,0,1,.22-.06c.08,0,.09.05.09.12a2.66,2.66,0,0,1-.08.33l-1.12,4a1.69,1.69,0,0,0-.07.38.25.25,0,0,0,.25.24,1.55,1.55,0,0,0,.63-.28Zm.73-6.67a1,1,0,0,1-1,1.06,1,1,0,0,1-1-1.07,1,1,0,1,1,2,0Zm2.82,6a1.88,1.88,0,0,0-.1.47.24.24,0,0,0,.24.27,1.61,1.61,0,0,0,.7-.3l0,.07a.84.84,0,0,1,.13.27c0,.24-.88.83-1.71.83-.63,0-1.22-.33-1.22-1a3.56,3.56,0,0,1,.17-.92l1.45-5.46a.51.51,0,0,0,0-.2c0-.44-.44-.21-.44-.47a1.31,1.31,0,0,1,.09-.38l2.46-.08Zm7.76.13a2.57,2.57,0,0,0-.08.4c0,.18.06.3.26.3a1.11,1.11,0,0,0,.62-.31l.12.21a.37.37,0,0,1,0,.14c0,.27-1,.74-1.56.74a1.17,1.17,0,0,1-1.23-.74,2.79,2.79,0,0,1-1.77.74,1.78,1.78,0,0,1-1.86-1.92,4.23,4.23,0,0,1,3.73-4,2,2,0,0,1,.95.19l.46-1.71a.51.51,0,0,0,0-.2c0-.39-.38-.25-.38-.47a1.72,1.72,0,0,1,.08-.38l2.48-.08Zm-1.12-3a1.15,1.15,0,0,0,.07-.36.49.49,0,0,0-.43-.49c-1.23,0-2.08,2.49-2.08,3.49,0,.39.13,1,.62,1a1.53,1.53,0,0,0,1.06-.68Zm5.51,4.24h-1.8l.5-1.82a12.64,12.64,0,0,0,.46-2.33c0-.68-.56-.15-.63-.61l0-.32a6.29,6.29,0,0,0,2.16-.61c.2,0,.21.72.21.8a6,6,0,0,1-.18,1.41h0c.41-.8,1.06-2.21,2.14-2.21a.89.89,0,0,1,.88.81,1,1,0,0,1-1,1c-.53,0-.7-.42-.87-.42-.32,0-1.07,1.78-1.24,2.27Zm9.08-1a3.41,3.41,0,0,1-2.63,1.17,2.15,2.15,0,0,1-2.4-2.15,3.89,3.89,0,0,1,3.89-3.74c.74,0,1.67.33,1.67,1.27,0,1.13-1.3,2.11-3.66,2.06l0,.46c0,.77.29,1.44,1.16,1.44a2.3,2.3,0,0,0,1.66-.87Zm-.71-3.72a.45.45,0,0,0-.43-.51c-.9,0-1.77,1.51-1.9,2.3C186.69,180.76,187.29,179.68,187.29,179Zm3.38.35a.71.71,0,0,0,0-.21c0-.41-.45-.21-.45-.45a1.72,1.72,0,0,1,.08-.38h.31a7.29,7.29,0,0,0,1.88-.25.9.9,0,0,1,.22-.06c.08,0,.09.05.09.12a2.66,2.66,0,0,1-.08.33l-.06.21a3.3,3.3,0,0,1,1.88-.66,1.3,1.3,0,0,1,1.42,1.16,3.22,3.22,0,0,1-.14.74l-.73,2.74a1.26,1.26,0,0,0-.05.28.18.18,0,0,0,.18.19.89.89,0,0,0,.59-.36,2.14,2.14,0,0,1,.16.39c0,.3-.81.75-1.41.75s-1.36-.29-1.36-.94a4.24,4.24,0,0,1,.16-.85l.69-2.51a2.57,2.57,0,0,0,.08-.4.4.4,0,0,0-.44-.41,1.94,1.94,0,0,0-1.24.68l-1.13,4.23H189.5Zm14.51,3.07a1.53,1.53,0,0,0-.07.41c0,.32.56.17.56.45a4.24,4.24,0,0,1-.11.41h-3.3l.12-.35c.13-.38.64,0,.87-.86l1.7-6.33h-.4c-2,0-1.3,1.37-2.22,1.37H202l.6-2.29a.87.87,0,0,0,.38.18,2.68,2.68,0,0,0,.42,0h5.38a2.25,2.25,0,0,0,1-.2l-.6,2.29h-.29c-.77,0,.12-1.37-1-1.37h-.9Zm5.68-5.94a.75.75,0,0,0,0-.2c0-.45-.44-.23-.44-.47a1,1,0,0,1,.09-.38l2.49-.08-.89,3.35a3.69,3.69,0,0,1,1.92-.7c.66,0,1.5.31,1.5,1.1a3.43,3.43,0,0,1-.14.71l-.71,2.65a2.29,2.29,0,0,0-.09.44.18.18,0,0,0,.18.2c.2,0,.43-.21.58-.34l.05.08a1,1,0,0,1,.13.27c0,.26-.66.78-1.45.78-.55,0-1.3-.35-1.3-1a3.1,3.1,0,0,1,.13-.74l.71-2.65a1.4,1.4,0,0,0,.07-.39c0-.24-.18-.33-.41-.33a2.58,2.58,0,0,0-1.38.68l-1.13,4.23h-1.88Zm8.17,7.21h-1.8l.5-1.82a12.64,12.64,0,0,0,.46-2.33c0-.68-.56-.15-.63-.61l-.06-.32a6.3,6.3,0,0,0,2.17-.61c.2,0,.21.72.21.8a6,6,0,0,1-.18,1.41h.05c.41-.8,1.06-2.21,2.14-2.21a.89.89,0,0,1,.88.81,1,1,0,0,1-1,1c-.52,0-.69-.42-.87-.42s-1.06,1.78-1.23,2.27Zm7.08-.7a.18.18,0,0,1,.06.14c0,.28-.87.76-1.55.76s-1.31-.3-1.31-1.08a3.19,3.19,0,0,1,.14-.76l.71-2.7a.46.46,0,0,0,0-.19c0-.42-.45-.22-.45-.47a2.57,2.57,0,0,1,.08-.38h.37a7.41,7.41,0,0,0,1.88-.25.83.83,0,0,1,.21-.06c.08,0,.09.05.09.12a2.66,2.66,0,0,1-.08.33l-1.11,4a1.27,1.27,0,0,0-.07.38.24.24,0,0,0,.24.24,1.59,1.59,0,0,0,.64-.28Zm.73-6.67a1,1,0,0,1-1,1.06,1,1,0,0,1-1-1.07,1.05,1.05,0,0,1,1-1A1,1,0,0,1,226.84,176.32Zm2.93,5.9a1.65,1.65,0,0,0-.1.47.5.5,0,0,0,.52.51c1.47,0,2.36-2.58,2.36-3.26s-1,0-1-1.21a.78.78,0,0,1,.77-.73c.64,0,.87.76.87,1.28,0,1.79-1.07,4.61-3.49,4.61-.8,0-1.8-.42-1.8-1.35a3,3,0,0,1,.12-.73l.65-2.46a.49.49,0,0,0,0-.21c0-.43-.48-.2-.48-.45a1.75,1.75,0,0,1,.09-.38h.35a7.29,7.29,0,0,0,1.88-.25,1,1,0,0,1,.21-.06c.09,0,.1.05.1.12a2.66,2.66,0,0,1-.08.33Zm9.44.5a3.41,3.41,0,0,1-2.63,1.17,2.15,2.15,0,0,1-2.4-2.15,3.89,3.89,0,0,1,3.89-3.74c.74,0,1.67.33,1.67,1.27,0,1.13-1.31,2.11-3.67,2.06l0,.46c0,.77.29,1.44,1.16,1.44a2.32,2.32,0,0,0,1.66-.87Zm-.72-3.72c0-.26-.14-.51-.42-.51-.9,0-1.77,1.51-1.9,2.3C237.89,180.76,238.49,179.68,238.49,179Z" transform="translate(0 0.19)"/><path id="zzu" class="cls-6" d="M67.58,68.79H97.7v8.74L77.14,114h21v9.19H65.47v-8.81L86,78H67.58Zm9.61,38.45c1.82-3.76,3.56-7.56,5.29-11.37.87-1.9,1.74-3.8,2.66-5.68s1.83-3.76,2.8-5.61c2-3.7,4-7.34,5.92-11.06l.49-.94H93.27c-3.7,0-7.41,0-11.11.09s-7.4.23-11.11.49H71v.14h.07c3.71.27,7.41.38,11.11.49s6.37.15,10.07.11l0,0c-1.8,3.78-3,6.63-4.75,10.41-.89,1.9-1.81,3.77-2.77,5.63s-1.92,3.71-2.91,5.56c-2,3.68-4,7.36-5.85,11.09s-3.82,7.43-5.66,11.19L69.71,119,71,119c2,0,4,.07,6,.06h6c2,0,4,0,6-.06s4-.09,6-.17H95v-.14H94.9q-3-.25-6-.44c-2-.12-4-.26-6-.35l-6-.28c-2-.1-2.73-.1-4.72-.17M195.83,68.79v38c0,5.19,2.25,7.9,7.3,7.9s7.38-2.71,7.38-7.9v-38H220.9v38.1c0,12-7.08,17-17.77,17s-17.7-5-17.7-17V68.79Zm-4.91,3.95h.14v-.08l.06-.89v-.21c-.12,0,.28,0-.28,0v.18l0,.44L190.77,74c0,1.18-.09,2.36-.11,3.55l-.14,7.1c-.05,4.73-.07,9.46,0,14.19l.21,7.09a20.73,20.73,0,0,0,.31,3.59,16.89,16.89,0,0,0,1,3.47,11.38,11.38,0,0,0,11.14,7.78,15.19,15.19,0,0,0,7.14-1.4,11.19,11.19,0,0,0,3-2.17,12.58,12.58,0,0,0,2.15-3.07,20.72,20.72,0,0,0,1.84-7.08c.21-2.45.18-4.79.22-7.17,0-9.47-.26-18.93-.81-28.39v-.08h-.15v.08c-.4,9.46-.51,18.93-.65,28.38,0,2.35,0,4.75-.17,7a19.27,19.27,0,0,1-1.56,6.62,12.05,12.05,0,0,1-1.83,2.78,10,10,0,0,1-2.63,2,15,15,0,0,1-6.59,1.64,11.1,11.1,0,0,1-6.58-1.68,11,11,0,0,1-4.11-5.45,16.58,16.58,0,0,1-.89-6.88l.21-7.1c.07-4.74,0-9.47-.12-14.2-.05-2.37-.16-4.73-.24-7.1,0-1.18-.1-2.36-.17-3.55l-.1-1.77,0-.44v-.21c-.57,0-.16,0-.29,0v.22l0,.89Zm-43.34-3.95H177.7v8.74L157.14,114h21v9.19H145.47v-8.81L166,78H147.58Zm9.61,38.45c1.82-3.76,3.56-7.56,5.29-11.37.87-1.9,1.74-3.8,2.66-5.68s1.83-3.76,2.8-5.61c1.95-3.7,4-7.34,5.92-11.06l.49-.94h-1.08c-3.7,0-7.41,0-11.11.09s-7.4.23-11.11.49H151v.14h.07c3.71.27,7.41.38,11.11.49s6.37.15,10.07.11l0,0c-1.8,3.78-3,6.63-4.75,10.41-.89,1.9-1.81,3.77-2.77,5.63s-1.92,3.71-2.91,5.56c-2,3.68-3.95,7.36-5.85,11.09s-3.82,7.43-5.66,11.19l-.56,1.14,1.26,0c2,0,4,.07,6,.06h6c2,0,4,0,6-.06s4-.09,6-.17H175v-.14h-.08q-3-.25-6-.44c-2-.12-4-.26-6-.35l-6-.28c-2-.1-2.73-.1-4.72-.17" transform="translate(0 0.19)"/></svg>